<svg xmlns="http://www.w3.org/2000/svg" xmlns:xlink="http://www.w3.org/1999/xlink" width="612" zoomAndPan="magnify" viewBox="0 0 458.88 631.499986" height="842" preserveAspectRatio="xMidYMid meet" version="1.2"><defs><clipPath id="93170b18b3"><path d="M 31.738281 203.679688 L 73 203.679688 L 73 244 L 31.738281 244 Z M 31.738281 203.679688 "/></clipPath><clipPath id="493e1ed150"><path d="M 387 203.679688 L 427.425781 203.679688 L 427.425781 244 L 387 244 Z M 387 203.679688 "/></clipPath><clipPath id="2656e4a8f3"><path d="M 31.738281 388 L 73 388 L 73 427.753906 L 31.738281 427.753906 Z M 31.738281 388 "/></clipPath><clipPath id="a33232587e"><path d="M 387 388 L 427.425781 388 L 427.425781 427.753906 L 387 427.753906 Z M 387 388 "/></clipPath><clipPath id="e01b430af5"><path d="M 387.277344 203.980469 L 390.273438 203.980469 L 390.273438 206.976562 L 387.277344 206.976562 Z M 387.277344 203.980469 "/></clipPath></defs><g id="c7a955e80b"><path style="fill:none;stroke-width:2;stroke-linecap:butt;stroke-linejoin:miter;stroke:#92d873;stroke-opacity:1;stroke-miterlimit:4;" d="M 0.000741444 0.99798 L 43.237906 0.99798 " transform="matrix(0.745344,0,0,0.745344,34.06976,424.697568)"/><g clip-rule="nonzero" clip-path="url(#93170b18b3)"><path style=" stroke:none;fill-rule:nonzero;fill:#92d873;fill-opacity:1;" d="M 35.289062 243.066406 L 31.78125 243.066406 L 31.78125 203.679688 L 72.132812 203.679688 L 72.132812 207.179688 L 35.289062 207.179688 L 35.289062 243.066406 "/></g><g clip-rule="nonzero" clip-path="url(#493e1ed150)"><path style=" stroke:none;fill-rule:nonzero;fill:#92d873;fill-opacity:1;" d="M 427.382812 243.066406 L 423.875 243.066406 L 423.875 207.179688 L 387.910156 207.179688 L 387.910156 203.679688 L 427.382812 203.679688 L 427.382812 243.066406 "/></g><g clip-rule="nonzero" clip-path="url(#2656e4a8f3)"><path style=" stroke:none;fill-rule:nonzero;fill:#92d873;fill-opacity:1;" d="M 72.132812 427.753906 L 31.78125 427.753906 L 31.78125 388.363281 L 35.289062 388.363281 L 35.289062 424.25 L 72.132812 424.25 L 72.132812 427.753906 "/></g><g clip-rule="nonzero" clip-path="url(#a33232587e)"><path style=" stroke:none;fill-rule:nonzero;fill:#92d873;fill-opacity:1;" d="M 427.382812 427.753906 L 387.910156 427.753906 L 387.910156 424.25 L 423.875 424.25 L 423.875 388.363281 L 427.382812 388.363281 L 427.382812 427.753906 "/></g><path style="fill:none;stroke-width:1;stroke-linecap:butt;stroke-linejoin:miter;stroke:#222222;stroke-opacity:1;stroke-miterlimit:4;" d="M 0.00189455 0.497633 L 53.695419 0.497633 " transform="matrix(0,-0.749407,0.749407,0,31.361445,243.466264)"/><path style="fill:none;stroke-width:1;stroke-linecap:butt;stroke-linejoin:miter;stroke:#222222;stroke-opacity:1;stroke-miterlimit:4;" d="M -0.00251302 0.498788 L 5.19991 0.498788 " transform="matrix(-0.72232,0.00000000126069,-0.00000000126069,-0.72232,35.627091,243.469659)"/><path style="fill:none;stroke-width:1;stroke-linecap:butt;stroke-linejoin:miter;stroke:#222222;stroke-opacity:1;stroke-miterlimit:4;" d="M 0.00119375 0.501057 L 48.570872 0.501057 " transform="matrix(0,-0.749407,0.749407,0,34.882317,243.465738)"/><path style="fill:none;stroke-width:1;stroke-linecap:butt;stroke-linejoin:miter;stroke:#222222;stroke-opacity:1;stroke-miterlimit:4;" d="M 0.000473731 0.49951 L 54.194268 0.49951 " transform="matrix(-0.746813,0,0,-0.746813,72.34801,203.978509)"/><path style="fill:none;stroke-width:1;stroke-linecap:butt;stroke-linejoin:miter;stroke:#222222;stroke-opacity:1;stroke-miterlimit:4;" d="M 0.00150084 0.502425 L 49.498739 0.502425 " transform="matrix(-0.742071,0.00000000129516,-0.00000000129516,-0.742071,72.344864,207.818148)"/><path style="fill:none;stroke-width:1;stroke-linecap:butt;stroke-linejoin:miter;stroke:#222222;stroke-opacity:1;stroke-miterlimit:4;" d="M -0.00052374 0.501189 L 5.024301 0.501189 " transform="matrix(0,-0.747072,0.747072,0,71.602138,207.441015)"/><path style="fill:none;stroke-width:1;stroke-linecap:butt;stroke-linejoin:miter;stroke:#222222;stroke-opacity:1;stroke-miterlimit:4;" d="M -0.000533261 0.500044 L 53.698203 0.500044 " transform="matrix(0,0.749407,-0.749407,0,427.886455,388.207431)"/><path style="fill:none;stroke-width:1;stroke-linecap:butt;stroke-linejoin:miter;stroke:#222222;stroke-opacity:1;stroke-miterlimit:4;" d="M -0.00258932 0.501637 L 5.199834 0.501637 " transform="matrix(0.72232,-0.000000000000015766,0.000000000000015766,0.72232,423.619058,388.204064)"/><path style="fill:none;stroke-width:1;stroke-linecap:butt;stroke-linejoin:miter;stroke:#222222;stroke-opacity:1;stroke-miterlimit:4;" d="M -0.00127566 0.502032 L 48.573615 0.502032 " transform="matrix(0,0.749407,-0.749407,0,424.364508,388.207987)"/><path style="fill:none;stroke-width:1;stroke-linecap:butt;stroke-linejoin:miter;stroke:#222222;stroke-opacity:1;stroke-miterlimit:4;" d="M 0.002149 0.502291 L 54.195943 0.502291 " transform="matrix(0.746813,0,0,0.746813,386.900739,427.695195)"/><path style="fill:none;stroke-width:1;stroke-linecap:butt;stroke-linejoin:miter;stroke:#222222;stroke-opacity:1;stroke-miterlimit:4;" d="M 0.00216273 0.499941 L 49.494137 0.499941 " transform="matrix(0.742071,-0.000000000000001749,0.000000000000001749,0.742071,386.900739,423.855571)"/><path style="fill:none;stroke-width:1;stroke-linecap:butt;stroke-linejoin:miter;stroke:#222222;stroke-opacity:1;stroke-miterlimit:4;" d="M 0.00224714 0.500994 L 5.021843 0.500994 " transform="matrix(0,0.747072,-0.747072,0,387.647716,424.232696)"/><path style="fill:none;stroke-width:1;stroke-linecap:butt;stroke-linejoin:miter;stroke:#92d873;stroke-opacity:1;stroke-miterlimit:4;" d="M 0.00141308 0.501487 L 2.998576 0.501487 " transform="matrix(0,0.749407,-0.749407,0,388.774255,424.651285)"/><path style="fill:none;stroke-width:1;stroke-linecap:butt;stroke-linejoin:miter;stroke:#222222;stroke-opacity:1;stroke-miterlimit:4;" d="M -0.000280801 0.50245 L 53.698456 0.50245 " transform="matrix(0,-0.749407,0.749407,0,30.986742,428.441196)"/><path style="fill:none;stroke-width:1;stroke-linecap:butt;stroke-linejoin:miter;stroke:#222222;stroke-opacity:1;stroke-miterlimit:4;" d="M -0.00210226 0.498007 L 5.200321 0.498007 " transform="matrix(-0.72232,0.000000000000015766,-0.000000000000015766,-0.72232,35.252388,388.953471)"/><path style="fill:none;stroke-width:1;stroke-linecap:butt;stroke-linejoin:miter;stroke:#222222;stroke-opacity:1;stroke-miterlimit:4;" d="M -0.00148062 0.501057 L 48.57341 0.501057 " transform="matrix(0,-0.749407,0.749407,0,34.882317,424.647328)"/><path style="fill:none;stroke-width:1;stroke-linecap:butt;stroke-linejoin:miter;stroke:#222222;stroke-opacity:1;stroke-miterlimit:4;" d="M 0.00150084 0.498651 L 49.498739 0.498651 " transform="matrix(-0.742071,0.00000000129516,-0.00000000129516,-0.742071,72.344864,424.651285)"/><path style="fill:none;stroke-width:1;stroke-linecap:butt;stroke-linejoin:miter;stroke:#222222;stroke-opacity:1;stroke-miterlimit:4;" d="M 0.00109862 0.501189 L 5.020695 0.501189 " transform="matrix(0,-0.747072,0.747072,0,71.602138,428.442227)"/><path style="fill:none;stroke-width:1;stroke-linecap:butt;stroke-linejoin:miter;stroke:#222222;stroke-opacity:1;stroke-miterlimit:4;" d="M 0.00087102 0.501181 L 54.194665 0.501181 " transform="matrix(-0.746813,0,0,-0.746813,71.973307,428.444601)"/><path style="fill:none;stroke-width:1;stroke-linecap:butt;stroke-linejoin:miter;stroke:#222222;stroke-opacity:1;stroke-miterlimit:4;" d="M 0.00112213 0.501132 L 53.694646 0.501132 " transform="matrix(0,0.749407,-0.749407,0,427.88727,203.225722)"/><path style="fill:none;stroke-width:1;stroke-linecap:butt;stroke-linejoin:miter;stroke:#222222;stroke-opacity:1;stroke-miterlimit:4;" d="M -0.000800199 0.499443 L 5.201623 0.499443 " transform="matrix(0.72232,-0.000000000000015766,0.000000000000015766,0.72232,423.621672,242.713461)"/><path style="fill:none;stroke-width:1;stroke-linecap:butt;stroke-linejoin:miter;stroke:#222222;stroke-opacity:1;stroke-miterlimit:4;" d="M -0.0000808954 0.499808 L 48.57481 0.499808 " transform="matrix(0,0.749407,-0.749407,0,423.991747,207.019592)"/><path style="fill:none;stroke-width:1;stroke-linecap:butt;stroke-linejoin:miter;stroke:#222222;stroke-opacity:1;stroke-miterlimit:4;" d="M -0.00245761 0.500039 L 49.494781 0.500039 " transform="matrix(0.742071,-0.00000000129516,0.00000000129516,0.742071,386.529167,207.015654)"/><path style="fill:none;stroke-width:1;stroke-linecap:butt;stroke-linejoin:miter;stroke:#222222;stroke-opacity:1;stroke-miterlimit:4;" d="M 0.00243852 0.499902 L 5.022035 0.499902 " transform="matrix(0,0.747072,-0.747072,0,387.2719,203.224741)"/><path style="fill:none;stroke-width:1;stroke-linecap:butt;stroke-linejoin:miter;stroke:#222222;stroke-opacity:1;stroke-miterlimit:4;" d="M 0.002149 0.502598 L 54.195943 0.502598 " transform="matrix(0.746813,0,0,0.746813,386.900739,203.222309)"/><g clip-rule="nonzero" clip-path="url(#e01b430af5)"><path style=" stroke:none;fill-rule:nonzero;fill:#92d873;fill-opacity:1;" d="M 387.277344 203.980469 L 390.273438 203.980469 L 390.273438 206.976562 L 387.277344 206.976562 Z M 387.277344 203.980469 "/></g></g></svg>